<?xml version="1.0" encoding="us-ascii" standalone="no"?><svg xmlns="http://www.w3.org/2000/svg" xmlns:xlink="http://www.w3.org/1999/xlink" contentStyleType="text/css" height="1547px" preserveAspectRatio="none" style="width:2171px;height:1547px;background:#FFFFFF;" version="1.1" viewBox="0 0 2171 1547" width="2171px" zoomAndPan="magnify"><defs/><g><!--cluster Robot-Framework--><g id="cluster_Robot-Framework"><rect fill="none" height="1474" rx="2.5" ry="2.5" style="stroke:#181818;stroke-width:1.0;" width="2158" x="7" y="67.68"/><text fill="#000000" font-family="sans-serif" font-size="14" font-weight="bold" lengthAdjust="spacing" textLength="125" x="1023.5" y="84.7874">Robot-Framework</text></g><!--cluster Resources--><g id="cluster_Resources"><path d="M887.5,188.68 L964.5,188.68 A3.75,3.75 0 0 1 967,191.18 L974,213.3011 L1736,213.3011 A2.5,2.5 0 0 1 1738.5,215.8011 L1738.5,1220.18 A2.5,2.5 0 0 1 1736,1222.68 L887.5,1222.68 A2.5,2.5 0 0 1 885,1220.18 L885,191.18 A2.5,2.5 0 0 1 887.5,188.68 " fill="none" style="stroke:#000000;stroke-width:1.5;"/><line style="stroke:#000000;stroke-width:1.5;" x1="885" x2="974" y1="213.3011" y2="213.3011"/><text fill="#000000" font-family="sans-serif" font-size="14" font-weight="bold" lengthAdjust="spacing" textLength="76" x="889" y="205.7874">Resources</text></g><!--cluster Documentation--><g id="cluster_Documentation"><path d="M982,233.68 L1089,233.68 A3.75,3.75 0 0 1 1091.5,236.18 L1098.5,258.3011 L1282,258.3011 A2.5,2.5 0 0 1 1284.5,260.8011 L1284.5,334.18 A2.5,2.5 0 0 1 1282,336.68 L982,336.68 A2.5,2.5 0 0 1 979.5,334.18 L979.5,236.18 A2.5,2.5 0 0 1 982,233.68 " fill="none" style="stroke:#000000;stroke-width:1.5;"/><line style="stroke:#000000;stroke-width:1.5;" x1="979.5" x2="1098.5" y1="258.3011" y2="258.3011"/><text fill="#000000" font-family="sans-serif" font-size="14" font-weight="bold" lengthAdjust="spacing" textLength="106" x="983.5" y="250.7874">Documentation</text></g><!--cluster Keywords--><g id="cluster_Keywords"><path d="M982.5,360.68 L1052.5,360.68 A3.75,3.75 0 0 1 1055,363.18 L1062,385.3011 L1281.5,385.3011 A2.5,2.5 0 0 1 1284,387.8011 L1284,461.18 A2.5,2.5 0 0 1 1281.5,463.68 L982.5,463.68 A2.5,2.5 0 0 1 980,461.18 L980,363.18 A2.5,2.5 0 0 1 982.5,360.68 " fill="none" style="stroke:#000000;stroke-width:1.5;"/><line style="stroke:#000000;stroke-width:1.5;" x1="980" x2="1062" y1="385.3011" y2="385.3011"/><text fill="#000000" font-family="sans-serif" font-size="14" font-weight="bold" lengthAdjust="spacing" textLength="69" x="984" y="377.7874">Keywords</text></g><!--cluster Locators--><g id="cluster_Locators"><path d="M969.5,495.68 L1031.5,495.68 A3.75,3.75 0 0 1 1034,498.18 L1041,520.3011 L1294.5,520.3011 A2.5,2.5 0 0 1 1297,522.8011 L1297,883.18 A2.5,2.5 0 0 1 1294.5,885.68 L969.5,885.68 A2.5,2.5 0 0 1 967,883.18 L967,498.18 A2.5,2.5 0 0 1 969.5,495.68 " fill="none" style="stroke:#000000;stroke-width:1.5;"/><line style="stroke:#000000;stroke-width:1.5;" x1="967" x2="1041" y1="520.3011" y2="520.3011"/><text fill="#000000" font-family="sans-serif" font-size="14" font-weight="bold" lengthAdjust="spacing" textLength="61" x="971" y="512.7874">Locators</text></g><!--cluster PO-PageObjects--><g id="cluster_PO-PageObjects"><path d="M1434,495.68 L1549,495.68 A3.75,3.75 0 0 1 1551.5,498.18 L1558.5,520.3011 L1704,520.3011 A2.5,2.5 0 0 1 1706.5,522.8011 L1706.5,883.18 A2.5,2.5 0 0 1 1704,885.68 L1434,885.68 A2.5,2.5 0 0 1 1431.5,883.18 L1431.5,498.18 A2.5,2.5 0 0 1 1434,495.68 " fill="none" style="stroke:#000000;stroke-width:1.5;"/><line style="stroke:#000000;stroke-width:1.5;" x1="1431.5" x2="1558.5" y1="520.3011" y2="520.3011"/><text fill="#000000" font-family="sans-serif" font-size="14" font-weight="bold" lengthAdjust="spacing" textLength="114" x="1435.5" y="512.7874">PO-PageObjects</text></g><!--cluster ReferenceImages--><g id="cluster_ReferenceImages"><path d="M911.5,1095.68 L1036.5,1095.68 A3.75,3.75 0 0 1 1039,1098.18 L1046,1120.3011 L1352.5,1120.3011 A2.5,2.5 0 0 1 1355,1122.8011 L1355,1196.18 A2.5,2.5 0 0 1 1352.5,1198.68 L911.5,1198.68 A2.5,2.5 0 0 1 909,1196.18 L909,1098.18 A2.5,2.5 0 0 1 911.5,1095.68 " fill="none" style="stroke:#000000;stroke-width:1.5;"/><line style="stroke:#000000;stroke-width:1.5;" x1="909" x2="1046" y1="1120.3011" y2="1120.3011"/><text fill="#000000" font-family="sans-serif" font-size="14" font-weight="bold" lengthAdjust="spacing" textLength="124" x="913" y="1112.7874">ReferenceImages</text></g><!--cluster Variables--><g id="cluster_Variables"><path d="M997,925.68 L1063,925.68 A3.75,3.75 0 0 1 1065.5,928.18 L1072.5,950.3011 L1267,950.3011 A2.5,2.5 0 0 1 1269.5,952.8011 L1269.5,1061.18 A2.5,2.5 0 0 1 1267,1063.68 L997,1063.68 A2.5,2.5 0 0 1 994.5,1061.18 L994.5,928.18 A2.5,2.5 0 0 1 997,925.68 " fill="none" style="stroke:#000000;stroke-width:1.5;"/><line style="stroke:#000000;stroke-width:1.5;" x1="994.5" x2="1072.5" y1="950.3011" y2="950.3011"/><text fill="#000000" font-family="sans-serif" font-size="14" font-weight="bold" lengthAdjust="spacing" textLength="65" x="998.5" y="942.7874">Variables</text></g><!--cluster Results--><g id="cluster_Results"><path d="M1385.5,1246.68 L1439.5,1246.68 A3.75,3.75 0 0 1 1442,1249.18 L1449,1271.3011 L2041.5,1271.3011 A2.5,2.5 0 0 1 2044,1273.8011 L2044,1515.18 A2.5,2.5 0 0 1 2041.5,1517.68 L1385.5,1517.68 A2.5,2.5 0 0 1 1383,1515.18 L1383,1249.18 A2.5,2.5 0 0 1 1385.5,1246.68 " fill="none" style="stroke:#000000;stroke-width:1.5;"/><line style="stroke:#000000;stroke-width:1.5;" x1="1383" x2="1449" y1="1271.3011" y2="1271.3011"/><text fill="#000000" font-family="sans-serif" font-size="14" font-weight="bold" lengthAdjust="spacing" textLength="53" x="1387" y="1263.7874">Results</text></g><!--cluster Tests--><g id="cluster_Tests"><path d="M33.5,132.68 L72.5,132.68 A3.75,3.75 0 0 1 75,135.18 L82,157.3011 L270.5,157.3011 A2.5,2.5 0 0 1 273,159.8011 L273,233.18 A2.5,2.5 0 0 1 270.5,235.68 L33.5,235.68 A2.5,2.5 0 0 1 31,233.18 L31,135.18 A2.5,2.5 0 0 1 33.5,132.68 " fill="none" style="stroke:#000000;stroke-width:1.5;"/><line style="stroke:#000000;stroke-width:1.5;" x1="31" x2="82" y1="157.3011" y2="157.3011"/><text fill="#000000" font-family="sans-serif" font-size="14" font-weight="bold" lengthAdjust="spacing" textLength="38" x="35" y="149.7874">Tests</text></g><!--entity Common.resource--><g id="elem_Common.resource"><rect fill="#F1F1F1" height="48.6211" rx="2.5" ry="2.5" style="stroke:#181818;stroke-width:0.5;" width="156" x="516" y="105.18"/><rect fill="#F1F1F1" height="10" style="stroke:#181818;stroke-width:0.5;" width="15" x="652" y="110.18"/><rect fill="#F1F1F1" height="2" style="stroke:#181818;stroke-width:0.5;" width="4" x="650" y="112.18"/><rect fill="#F1F1F1" height="2" style="stroke:#181818;stroke-width:0.5;" width="4" x="650" y="116.18"/><text fill="#000000" font-family="sans-serif" font-size="14" lengthAdjust="spacing" textLength="116" x="531" y="140.2874">Common.resource</text></g><!--entity ValoriWebShop.resource--><g id="elem_ValoriWebShop.resource"><rect fill="#F1F1F1" height="48.6211" rx="2.5" ry="2.5" style="stroke:#181818;stroke-width:0.5;" width="198" x="495" y="189.18"/><rect fill="#F1F1F1" height="10" style="stroke:#181818;stroke-width:0.5;" width="15" x="673" y="194.18"/><rect fill="#F1F1F1" height="2" style="stroke:#181818;stroke-width:0.5;" width="4" x="671" y="196.18"/><rect fill="#F1F1F1" height="2" style="stroke:#181818;stroke-width:0.5;" width="4" x="671" y="200.18"/><text fill="#000000" font-family="sans-serif" font-size="14" lengthAdjust="spacing" textLength="158" x="510" y="224.2874">ValoriWebShop.resource</text></g><g id="elem_GMN31"><path d="M41,254.18 L41,281.471 A0,0 0 0 0 41,281.471 L263,281.471 A0,0 0 0 0 263,281.471 L263,264.18 L253,254.18 L156,254.18 L152,219.24 L148,254.18 L41,254.18 A0,0 0 0 0 41,254.18 " fill="#FEFFDD" style="stroke:#181818;stroke-width:0.5;"/><path d="M253,254.18 L253,264.18 L263,264.18 L253,254.18 " fill="#FEFFDD" style="stroke:#181818;stroke-width:0.5;"/><text fill="#000000" font-family="sans-serif" font-size="13" lengthAdjust="spacing" textLength="201" x="47" y="273.2083">This file contains all the test cases</text></g><g id="elem_GMN34"><path d="M360,335.18 L360,362.471 L828,362.471 L828,345.18 L818,335.18 L360,335.18 " fill="#FEFFDD" style="stroke:#181818;stroke-width:0.5;"/><path d="M818,335.18 L818,345.18 L828,345.18 L818,335.18 " fill="#FEFFDD" style="stroke:#181818;stroke-width:1.0;"/><text fill="#000000" font-family="sans-serif" font-size="13" lengthAdjust="spacing" textLength="447" x="366" y="354.2083">This file contains all the common keywords for Test Setup and Test Teardown</text></g><g id="elem_GMN37"><path d="M323,273.18 L323,300.471 A0,0 0 0 0 323,300.471 L865,300.471 A0,0 0 0 0 865,300.471 L865,283.18 L855,273.18 L598,273.18 L594,238.24 L590,273.18 L323,273.18 A0,0 0 0 0 323,273.18 " fill="#FEFFDD" style="stroke:#181818;stroke-width:0.5;"/><path d="M855,273.18 L855,283.18 L865,283.18 L855,273.18 " fill="#FEFFDD" style="stroke:#181818;stroke-width:0.5;"/><text fill="#000000" font-family="sans-serif" font-size="13" lengthAdjust="spacing" textLength="521" x="329" y="292.2083">This file contains all the test steps for the test cases that will be send to the Page Objects</text></g><g id="elem_GMN40"><path d="M1799,864.18 L1799,891.471 L2149,891.471 L2149,874.18 L2139,864.18 L1799,864.18 " fill="#FEFFDD" style="stroke:#181818;stroke-width:0.5;"/><path d="M2139,864.18 L2139,874.18 L2149,874.18 L2139,864.18 " fill="#FEFFDD" style="stroke:#181818;stroke-width:1.0;"/><text fill="#000000" font-family="sans-serif" font-size="13" lengthAdjust="spacing" textLength="329" x="1805" y="883.2083">These files contain all the keywords for the Page Objects</text></g><g id="elem_GMN43"><path d="M423.5,864.18 L423.5,891.471 L764.5,891.471 L764.5,874.18 L754.5,864.18 L423.5,864.18 " fill="#FEFFDD" style="stroke:#181818;stroke-width:0.5;"/><path d="M754.5,864.18 L754.5,874.18 L764.5,874.18 L754.5,864.18 " fill="#FEFFDD" style="stroke:#181818;stroke-width:1.0;"/><text fill="#000000" font-family="sans-serif" font-size="13" lengthAdjust="spacing" textLength="320" x="429.5" y="883.2083">These files contain all the locators for the Page Objects</text></g><g id="elem_GMN46"><path d="M417,1042.18 L417,1069.471 L771,1069.471 L771,1052.18 L761,1042.18 L417,1042.18 " fill="#FEFFDD" style="stroke:#181818;stroke-width:0.5;"/><path d="M761,1042.18 L761,1052.18 L771,1052.18 L761,1042.18 " fill="#FEFFDD" style="stroke:#181818;stroke-width:1.0;"/><text fill="#000000" font-family="sans-serif" font-size="13" lengthAdjust="spacing" textLength="333" x="423" y="1061.2083">This file contains all the global variables for the test cases</text></g><!--entity Valori Robot Framework Project.docx--><g id="elem_Valori Robot Framework Project.docx"><rect fill="#F1F1F1" height="48.6211" rx="2.5" ry="2.5" style="stroke:#181818;stroke-width:0.5;" width="273" x="995.5" y="271.18"/><rect fill="#F1F1F1" height="10" style="stroke:#181818;stroke-width:0.5;" width="15" x="1248.5" y="276.18"/><rect fill="#F1F1F1" height="2" style="stroke:#181818;stroke-width:0.5;" width="4" x="1246.5" y="278.18"/><rect fill="#F1F1F1" height="2" style="stroke:#181818;stroke-width:0.5;" width="4" x="1246.5" y="282.18"/><text fill="#000000" font-family="sans-serif" font-size="14" lengthAdjust="spacing" textLength="233" x="1010.5" y="306.2874">Valori Robot Framework Project.docx</text></g><!--entity GenerateAndUseMockData.resource--><g id="elem_GenerateAndUseMockData.resource"><rect fill="#F1F1F1" height="48.6211" rx="2.5" ry="2.5" style="stroke:#181818;stroke-width:0.5;" width="272" x="996" y="398.18"/><rect fill="#F1F1F1" height="10" style="stroke:#181818;stroke-width:0.5;" width="15" x="1248" y="403.18"/><rect fill="#F1F1F1" height="2" style="stroke:#181818;stroke-width:0.5;" width="4" x="1246" y="405.18"/><rect fill="#F1F1F1" height="2" style="stroke:#181818;stroke-width:0.5;" width="4" x="1246" y="409.18"/><text fill="#000000" font-family="sans-serif" font-size="14" lengthAdjust="spacing" textLength="232" x="1011" y="433.2874">GenerateAndUseMockData.resource</text></g><!--entity LandingPageLocators.resource--><g id="elem_LandingPageLocators.resource"><rect fill="#F1F1F1" height="48.6211" rx="2.5" ry="2.5" style="stroke:#181818;stroke-width:0.5;" width="239" x="1012.5" y="541.18"/><rect fill="#F1F1F1" height="10" style="stroke:#181818;stroke-width:0.5;" width="15" x="1231.5" y="546.18"/><rect fill="#F1F1F1" height="2" style="stroke:#181818;stroke-width:0.5;" width="4" x="1229.5" y="548.18"/><rect fill="#F1F1F1" height="2" style="stroke:#181818;stroke-width:0.5;" width="4" x="1229.5" y="552.18"/><text fill="#000000" font-family="sans-serif" font-size="14" lengthAdjust="spacing" textLength="199" x="1027.5" y="576.2874">LandingPageLocators.resource</text></g><!--entity AccountPageLocators.resource--><g id="elem_AccountPageLocators.resource"><rect fill="#F1F1F1" height="48.6211" rx="2.5" ry="2.5" style="stroke:#181818;stroke-width:0.5;" width="239" x="1012.5" y="709.18"/><rect fill="#F1F1F1" height="10" style="stroke:#181818;stroke-width:0.5;" width="15" x="1231.5" y="714.18"/><rect fill="#F1F1F1" height="2" style="stroke:#181818;stroke-width:0.5;" width="4" x="1229.5" y="716.18"/><rect fill="#F1F1F1" height="2" style="stroke:#181818;stroke-width:0.5;" width="4" x="1229.5" y="720.18"/><text fill="#000000" font-family="sans-serif" font-size="14" lengthAdjust="spacing" textLength="199" x="1027.5" y="744.2874">AccountPageLocators.resource</text></g><!--entity SignInPageLocators.resource--><g id="elem_SignInPageLocators.resource"><rect fill="#F1F1F1" height="48.6211" rx="2.5" ry="2.5" style="stroke:#181818;stroke-width:0.5;" width="227" x="1018.5" y="625.18"/><rect fill="#F1F1F1" height="10" style="stroke:#181818;stroke-width:0.5;" width="15" x="1225.5" y="630.18"/><rect fill="#F1F1F1" height="2" style="stroke:#181818;stroke-width:0.5;" width="4" x="1223.5" y="632.18"/><rect fill="#F1F1F1" height="2" style="stroke:#181818;stroke-width:0.5;" width="4" x="1223.5" y="636.18"/><text fill="#000000" font-family="sans-serif" font-size="14" lengthAdjust="spacing" textLength="187" x="1033.5" y="660.2874">SignInPageLocators.resource</text></g><!--entity CreateAccountPageLocators.resource--><g id="elem_CreateAccountPageLocators.resource"><rect fill="#F1F1F1" height="48.6211" rx="2.5" ry="2.5" style="stroke:#181818;stroke-width:0.5;" width="282" x="991" y="793.18"/><rect fill="#F1F1F1" height="10" style="stroke:#181818;stroke-width:0.5;" width="15" x="1253" y="798.18"/><rect fill="#F1F1F1" height="2" style="stroke:#181818;stroke-width:0.5;" width="4" x="1251" y="800.18"/><rect fill="#F1F1F1" height="2" style="stroke:#181818;stroke-width:0.5;" width="4" x="1251" y="804.18"/><text fill="#000000" font-family="sans-serif" font-size="14" lengthAdjust="spacing" textLength="242" x="1006" y="828.2874">CreateAccountPageLocators.resource</text></g><!--entity LandingPage.resource--><g id="elem_LandingPage.resource"><rect fill="#F1F1F1" height="48.6211" rx="2.5" ry="2.5" style="stroke:#181818;stroke-width:0.5;" width="184" x="1477" y="541.18"/><rect fill="#F1F1F1" height="10" style="stroke:#181818;stroke-width:0.5;" width="15" x="1641" y="546.18"/><rect fill="#F1F1F1" height="2" style="stroke:#181818;stroke-width:0.5;" width="4" x="1639" y="548.18"/><rect fill="#F1F1F1" height="2" style="stroke:#181818;stroke-width:0.5;" width="4" x="1639" y="552.18"/><text fill="#000000" font-family="sans-serif" font-size="14" lengthAdjust="spacing" textLength="144" x="1492" y="576.2874">LandingPage.resource</text></g><!--entity AccountPage.resource--><g id="elem_AccountPage.resource"><rect fill="#F1F1F1" height="48.6211" rx="2.5" ry="2.5" style="stroke:#181818;stroke-width:0.5;" width="184" x="1477" y="709.18"/><rect fill="#F1F1F1" height="10" style="stroke:#181818;stroke-width:0.5;" width="15" x="1641" y="714.18"/><rect fill="#F1F1F1" height="2" style="stroke:#181818;stroke-width:0.5;" width="4" x="1639" y="716.18"/><rect fill="#F1F1F1" height="2" style="stroke:#181818;stroke-width:0.5;" width="4" x="1639" y="720.18"/><text fill="#000000" font-family="sans-serif" font-size="14" lengthAdjust="spacing" textLength="144" x="1492" y="744.2874">AccountPage.resource</text></g><!--entity SignInPage.resource--><g id="elem_SignInPage.resource"><rect fill="#F1F1F1" height="48.6211" rx="2.5" ry="2.5" style="stroke:#181818;stroke-width:0.5;" width="172" x="1483" y="625.18"/><rect fill="#F1F1F1" height="10" style="stroke:#181818;stroke-width:0.5;" width="15" x="1635" y="630.18"/><rect fill="#F1F1F1" height="2" style="stroke:#181818;stroke-width:0.5;" width="4" x="1633" y="632.18"/><rect fill="#F1F1F1" height="2" style="stroke:#181818;stroke-width:0.5;" width="4" x="1633" y="636.18"/><text fill="#000000" font-family="sans-serif" font-size="14" lengthAdjust="spacing" textLength="132" x="1498" y="660.2874">SignInPage.resource</text></g><!--entity CreateAccountPage.resource--><g id="elem_CreateAccountPage.resource"><rect fill="#F1F1F1" height="48.6211" rx="2.5" ry="2.5" style="stroke:#181818;stroke-width:0.5;" width="227" x="1455.5" y="793.18"/><rect fill="#F1F1F1" height="10" style="stroke:#181818;stroke-width:0.5;" width="15" x="1662.5" y="798.18"/><rect fill="#F1F1F1" height="2" style="stroke:#181818;stroke-width:0.5;" width="4" x="1660.5" y="800.18"/><rect fill="#F1F1F1" height="2" style="stroke:#181818;stroke-width:0.5;" width="4" x="1660.5" y="804.18"/><text fill="#000000" font-family="sans-serif" font-size="14" lengthAdjust="spacing" textLength="187" x="1470.5" y="828.2874">CreateAccountPage.resource</text></g><!--entity Screenshot_Invalid_Email_Create_Account_Reference.png--><g id="elem_Screenshot_Invalid_Email_Create_Account_Reference.png"><rect fill="#F1F1F1" height="48.6211" rx="2.5" ry="2.5" style="stroke:#181818;stroke-width:0.5;" width="414" x="925" y="1133.18"/><rect fill="#F1F1F1" height="10" style="stroke:#181818;stroke-width:0.5;" width="15" x="1319" y="1138.18"/><rect fill="#F1F1F1" height="2" style="stroke:#181818;stroke-width:0.5;" width="4" x="1317" y="1140.18"/><rect fill="#F1F1F1" height="2" style="stroke:#181818;stroke-width:0.5;" width="4" x="1317" y="1144.18"/><text fill="#000000" font-family="sans-serif" font-size="14" lengthAdjust="spacing" textLength="374" x="940" y="1168.2874">Screenshot_Invalid_Email_Create_Account_Reference.png</text></g><!--entity TestCasesVariables.resource--><g id="elem_TestCasesVariables.resource"><rect fill="#F1F1F1" height="48.6211" rx="2.5" ry="2.5" style="stroke:#181818;stroke-width:0.5;" width="227" x="1018.5" y="971.18"/><rect fill="#F1F1F1" height="10" style="stroke:#181818;stroke-width:0.5;" width="15" x="1225.5" y="976.18"/><rect fill="#F1F1F1" height="2" style="stroke:#181818;stroke-width:0.5;" width="4" x="1223.5" y="978.18"/><rect fill="#F1F1F1" height="2" style="stroke:#181818;stroke-width:0.5;" width="4" x="1223.5" y="982.18"/><text fill="#000000" font-family="sans-serif" font-size="14" lengthAdjust="spacing" textLength="187" x="1033.5" y="1006.2874">TestCasesVariables.resource</text></g><!--entity log.html--><g id="elem_log.html"><rect fill="#F1F1F1" height="48.6211" rx="2.5" ry="2.5" style="stroke:#181818;stroke-width:0.5;" width="89" x="1524.5" y="1368.18"/><rect fill="#F1F1F1" height="10" style="stroke:#181818;stroke-width:0.5;" width="15" x="1593.5" y="1373.18"/><rect fill="#F1F1F1" height="2" style="stroke:#181818;stroke-width:0.5;" width="4" x="1591.5" y="1375.18"/><rect fill="#F1F1F1" height="2" style="stroke:#181818;stroke-width:0.5;" width="4" x="1591.5" y="1379.18"/><text fill="#000000" font-family="sans-serif" font-size="14" lengthAdjust="spacing" textLength="49" x="1539.5" y="1403.2874">log.html</text></g><!--entity output.xml--><g id="elem_output.xml"><rect fill="#F1F1F1" height="48.6211" rx="2.5" ry="2.5" style="stroke:#181818;stroke-width:0.5;" width="104" x="1517" y="1284.18"/><rect fill="#F1F1F1" height="10" style="stroke:#181818;stroke-width:0.5;" width="15" x="1601" y="1289.18"/><rect fill="#F1F1F1" height="2" style="stroke:#181818;stroke-width:0.5;" width="4" x="1599" y="1291.18"/><rect fill="#F1F1F1" height="2" style="stroke:#181818;stroke-width:0.5;" width="4" x="1599" y="1295.18"/><text fill="#000000" font-family="sans-serif" font-size="14" lengthAdjust="spacing" textLength="64" x="1532" y="1319.2874">output.xml</text></g><!--entity report.html--><g id="elem_report.html"><rect fill="#F1F1F1" height="48.6211" rx="2.5" ry="2.5" style="stroke:#181818;stroke-width:0.5;" width="108" x="1920" y="1368.18"/><rect fill="#F1F1F1" height="10" style="stroke:#181818;stroke-width:0.5;" width="15" x="2008" y="1373.18"/><rect fill="#F1F1F1" height="2" style="stroke:#181818;stroke-width:0.5;" width="4" x="2006" y="1375.18"/><rect fill="#F1F1F1" height="2" style="stroke:#181818;stroke-width:0.5;" width="4" x="2006" y="1379.18"/><text fill="#000000" font-family="sans-serif" font-size="14" lengthAdjust="spacing" textLength="68" x="1935" y="1403.2874">report.html</text></g><!--entity Screenshot_Invalid_Email_Create_Account.png--><g id="elem_Screenshot_Invalid_Email_Create_Account.png"><rect fill="#F1F1F1" height="48.6211" rx="2.5" ry="2.5" style="stroke:#181818;stroke-width:0.5;" width="340" x="1399" y="1452.18"/><rect fill="#F1F1F1" height="10" style="stroke:#181818;stroke-width:0.5;" width="15" x="1719" y="1457.18"/><rect fill="#F1F1F1" height="2" style="stroke:#181818;stroke-width:0.5;" width="4" x="1717" y="1459.18"/><rect fill="#F1F1F1" height="2" style="stroke:#181818;stroke-width:0.5;" width="4" x="1717" y="1463.18"/><text fill="#000000" font-family="sans-serif" font-size="14" lengthAdjust="spacing" textLength="300" x="1414" y="1487.2874">Screenshot_Invalid_Email_Create_Account.png</text></g><!--entity ValoriWebShopTests.robot--><g id="elem_ValoriWebShopTests.robot"><rect fill="#F1F1F1" height="48.6211" rx="2.5" ry="2.5" style="stroke:#181818;stroke-width:0.5;" width="210" x="47" y="170.18"/><rect fill="#F1F1F1" height="10" style="stroke:#181818;stroke-width:0.5;" width="15" x="237" y="175.18"/><rect fill="#F1F1F1" height="2" style="stroke:#181818;stroke-width:0.5;" width="4" x="235" y="177.18"/><rect fill="#F1F1F1" height="2" style="stroke:#181818;stroke-width:0.5;" width="4" x="235" y="181.18"/><text fill="#000000" font-family="sans-serif" font-size="14" lengthAdjust="spacing" textLength="170" x="62" y="205.2874">ValoriWebShopTests.robot</text></g><!--link GMN34 to Common.resource--><g id="link_GMN34_Common.resource"><path d="M533.07,362.19 C459.11,374.57 339.6,380.46 302,300.18 C277.45,247.77 270.26,195.5 323,171.68 C384.07,144.1 459.91,134.15 515.81,130.78 " fill="none" id="GMN34-Common.resource" style="stroke:#2F4F4F;stroke-width:1.0;stroke-dasharray:7.0,7.0;"/></g><!--link PO-PageObjects to GMN40--><g id="link_PO-PageObjects_GMN40"><path d="M1707.3569,877.68 C1707.7606,877.68 1708.1646,877.68 1708.5689,877.68 C1711.8039,877.68 1715.0629,877.68 1718.3422,877.68 C1744.5763,877.68 1772.105,877.68 1798.97,877.68 " fill="none" id="PO-PageObjects-GMN40" style="stroke:#2F4F4F;stroke-width:1.0;stroke-dasharray:7.0,7.0;"/></g><!--link GMN43 to Locators--><g id="link_GMN43_Locators"><path d="M764.59,877.68 C803.235,877.68 845.05,877.68 886.1344,877.68 C906.6766,877.68 927.0361,877.68 946.7254,877.68 C951.6477,877.68 956.5281,877.68 961.3591,877.68 C962.5668,877.68 963.7714,877.68 964.9729,877.68 C965.5736,877.68 966.1735,877.68 966.7726,877.68 " fill="none" id="GMN43-Locators" style="stroke:#2F4F4F;stroke-width:1.0;stroke-dasharray:7.0,7.0;"/></g><!--link GMN46 to Variables--><g id="link_GMN46_Variables"><path d="M771.25,1055.68 C809.695,1055.68 851.005,1055.68 891.4416,1055.68 C911.6598,1055.68 931.6598,1055.68 950.974,1055.68 C960.6312,1055.68 970.1169,1055.68 979.3727,1055.68 C984.0007,1055.68 988.5712,1055.68 993.0769,1055.68 " fill="none" id="GMN46-Variables" style="stroke:#2F4F4F;stroke-width:1.0;stroke-dasharray:7.0,7.0;"/></g><!--link ValoriWebShopTests.robot to Common.resource--><g id="link_ValoriWebShopTests.robot_Common.resource"><path d="M262.43,178.51 C339.45,167.14 440.89,152.15 510.99,141.8 " fill="none" id="ValoriWebShopTests.robot-Common.resource" style="stroke:#0000FF;stroke-width:1.0;"/><polygon fill="#0000FF" points="257.27,179.28,266.7634,181.902,262.2148,178.539,265.5778,173.9904,257.27,179.28" style="stroke:#0000FF;stroke-width:1.0;"/><polygon fill="#0000FF" points="515.98,141.06,506.4929,138.4152,511.0334,141.7891,507.6595,146.3297,515.98,141.06" style="stroke:#0000FF;stroke-width:1.0;"/></g><!--link ValoriWebShopTests.robot to ValoriWebShop.resource--><g id="link_ValoriWebShopTests.robot_ValoriWebShop.resource"><path d="M257.27,199.18 C327.51,202.22 419.74,206.2 489.75,209.22 " fill="none" id="ValoriWebShopTests.robot-to-ValoriWebShop.resource" style="stroke:#008000;stroke-width:1.0;"/><polygon fill="#008000" points="494.76,209.44,485.9395,205.0583,489.7646,209.2259,485.597,213.051,494.76,209.44" style="stroke:#008000;stroke-width:1.0;"/></g><!--link ValoriWebShop.resource to LandingPage.resource--><g id="link_ValoriWebShop.resource_LandingPage.resource"><path d="M693.16,222.37 C749.59,222.02 818.31,211.78 865,171.68 C878.44,160.14 862.71,144.15 877,133.68 C1051.22,6 1180.44,18.24 1363,133.68 C1509.07,226.05 1553.14,453.87 1564.5,535.76 " fill="none" id="ValoriWebShop.resource-to-LandingPage.resource" style="stroke:#FF0000;stroke-width:1.0;"/><polygon fill="#FF0000" points="1565.21,540.94,1567.9658,531.4846,1564.5389,535.9852,1560.0382,532.5583,1565.21,540.94" style="stroke:#FF0000;stroke-width:1.0;"/></g><!--link ValoriWebShop.resource to GenerateAndUseMockData.resource--><g id="link_ValoriWebShop.resource_GenerateAndUseMockData.resource"><path d="M693.28,202.41 C751.01,201.54 821.05,211.41 865,255.68 C890.64,281.51 853.67,308.74 877,336.68 C905.66,371 948.57,391.68 991,404.11 " fill="none" id="ValoriWebShop.resource-to-GenerateAndUseMockData.resource" style="stroke:#800080;stroke-width:1.0;"/><polygon fill="#800080" points="995.9,405.51,988.3626,399.1707,991.0962,404.1232,986.1437,406.8568,995.9,405.51" style="stroke:#800080;stroke-width:1.0;"/></g><!--link ValoriWebShop.resource to AccountPage.resource--><g id="link_ValoriWebShop.resource_AccountPage.resource"><path d="M693.33,205.39 C889.8,189.88 1316.17,162 1363,207.68 C1382.25,226.46 1357.87,670.95 1375,691.68 C1398.32,719.9 1435.75,731.88 1471.47,736.27 " fill="none" id="ValoriWebShop.resource-to-AccountPage.resource" style="stroke:#FFA500;stroke-width:1.0;"/><polygon fill="#FFA500" points="1476.72,736.86,1468.2215,731.8825,1471.7511,736.3031,1467.3305,739.8328,1476.72,736.86" style="stroke:#FFA500;stroke-width:1.0;"/></g><!--link ValoriWebShop.resource to SignInPage.resource--><g id="link_ValoriWebShop.resource_SignInPage.resource"><path d="M693.16,197.1 C759.88,186.14 842.12,173.32 877,170.68 C930.85,166.6 1324.3,133.02 1363,170.68 C1380.41,187.62 1359.5,588.98 1375,607.68 C1399.71,637.5 1440.18,649.18 1477.69,652.93 " fill="none" id="ValoriWebShop.resource-to-SignInPage.resource" style="stroke:#FFC0CB;stroke-width:1.0;"/><polygon fill="#FFC0CB" points="1482.72,653.38,1474.1241,648.5727,1477.741,652.9222,1473.3915,656.5391,1482.72,653.38" style="stroke:#FFC0CB;stroke-width:1.0;"/></g><!--link ValoriWebShop.resource to CreateAccountPage.resource--><g id="link_ValoriWebShop.resource_CreateAccountPage.resource"><path d="M693.01,215.41 C894.84,219.45 1340.03,231.01 1363,254.68 C1383.16,275.46 1356.58,753.35 1375,775.68 C1393.72,798.37 1421.57,810.57 1450.32,816.76 " fill="none" id="ValoriWebShop.resource-to-CreateAccountPage.resource" style="stroke:#A52A2A;stroke-width:1.0;"/><polygon fill="#A52A2A" points="1455.32,817.78,1447.3016,812.0611,1450.421,816.7802,1445.7019,819.8996,1455.32,817.78" style="stroke:#A52A2A;stroke-width:1.0;"/></g><!--link TestCasesVariables.resource to LandingPage.resource--><g id="link_TestCasesVariables.resource_LandingPage.resource"><path d="M1245.72,972.75 C1289.7,957.82 1335.96,933.4 1363,893.68 C1380.9,867.39 1354.53,632.02 1375,607.68 C1398.56,579.66 1436.03,567.71 1471.71,563.29 " fill="none" id="TestCasesVariables.resource-to-LandingPage.resource" style="stroke:#008080;stroke-width:1.0;"/><polygon fill="#008080" points="1476.96,562.7,1467.5705,559.7272,1471.9911,563.2569,1468.4615,567.6775,1476.96,562.7" style="stroke:#008080;stroke-width:1.0;"/></g><!--link TestCasesVariables.resource to AccountPage.resource--><g id="link_TestCasesVariables.resource_AccountPage.resource"><path d="M1245.77,971.54 C1289.21,956.44 1335.05,932.23 1363,893.68 C1378.47,872.34 1357.44,795.34 1375,775.68 C1399.16,748.62 1436.32,736.75 1471.6,732.14 " fill="none" id="TestCasesVariables.resource-to-AccountPage.resource" style="stroke:#FFFF00;stroke-width:1.0;"/><polygon fill="#FFFF00" points="1476.79,731.51,1467.3746,728.6204,1471.8262,732.1108,1468.3359,736.5625,1476.79,731.51" style="stroke:#FFFF00;stroke-width:1.0;"/></g><!--link TestCasesVariables.resource to SignInPage.resource--><g id="link_TestCasesVariables.resource_SignInPage.resource"><path d="M1245.68,972.42 C1289.51,957.44 1335.68,933.07 1363,893.68 C1388.63,856.73 1345.76,725.84 1375,691.68 C1400.07,662.38 1440.36,650.72 1477.66,646.85 " fill="none" id="TestCasesVariables.resource-to-SignInPage.resource" style="stroke:#808080;stroke-width:1.0;"/><polygon fill="#808080" points="1482.66,646.38,1473.3226,643.2475,1477.6823,646.852,1474.0778,651.2118,1482.66,646.38" style="stroke:#808080;stroke-width:1.0;"/></g><!--link TestCasesVariables.resource to CreateAccountPage.resource--><g id="link_TestCasesVariables.resource_CreateAccountPage.resource"><path d="M1238.39,971.12 C1282.7,955.76 1331.23,931.46 1363,893.68 C1377.15,876.85 1358.69,860.43 1375,845.68 C1395.57,827.09 1422.74,817.52 1450.17,813.12 " fill="none" id="TestCasesVariables.resource-to-CreateAccountPage.resource" style="stroke:#FFD700;stroke-width:1.0;"/><polygon fill="#FFD700" points="1455.29,812.35,1445.8029,809.7052,1450.3434,813.0791,1446.9695,817.6197,1455.29,812.35" style="stroke:#FFD700;stroke-width:1.0;"/></g><!--link CreateAccountPageLocators.resource to CreateAccountPage.resource--><g id="link_CreateAccountPageLocators.resource_CreateAccountPage.resource"><path d="M1273.03,817.68 C1330.18,817.68 1395.53,817.68 1450.17,817.68 " fill="none" id="CreateAccountPageLocators.resource-to-CreateAccountPage.resource" style="stroke:#000080;stroke-width:1.0;"/><polygon fill="#000080" points="1455.42,817.68,1446.42,813.68,1450.42,817.68,1446.42,821.68,1455.42,817.68" style="stroke:#000080;stroke-width:1.0;"/></g><!--link SignInPageLocators.resource to SignInPage.resource--><g id="link_SignInPageLocators.resource_SignInPage.resource"><path d="M1245.59,649.68 C1317.72,649.68 1410.09,649.68 1477.46,649.68 " fill="none" id="SignInPageLocators.resource-to-SignInPage.resource" style="stroke:#800000;stroke-width:1.0;"/><polygon fill="#800000" points="1482.68,649.68,1473.68,645.68,1477.68,649.68,1473.68,653.68,1482.68,649.68" style="stroke:#800000;stroke-width:1.0;"/></g><!--link AccountPageLocators.resource to AccountPage.resource--><g id="link_AccountPageLocators.resource_AccountPage.resource"><path d="M1251.58,733.68 C1320.72,733.68 1406.81,733.68 1471.73,733.68 " fill="none" id="AccountPageLocators.resource-to-AccountPage.resource" style="stroke:#808000;stroke-width:1.0;"/><polygon fill="#808000" points="1476.76,733.68,1467.76,729.68,1471.76,733.68,1467.76,737.68,1476.76,733.68" style="stroke:#808000;stroke-width:1.0;"/></g><!--link LandingPageLocators.resource to LandingPage.resource--><g id="link_LandingPageLocators.resource_LandingPage.resource"><path d="M1251.58,565.68 C1320.72,565.68 1406.81,565.68 1471.73,565.68 " fill="none" id="LandingPageLocators.resource-to-LandingPage.resource" style="stroke:#00FFFF;stroke-width:1.0;"/><polygon fill="#00FFFF" points="1476.76,565.68,1467.76,561.68,1471.76,565.68,1467.76,569.68,1476.76,565.68" style="stroke:#00FFFF;stroke-width:1.0;"/></g><!--link Screenshot_Invalid_Email_Create_Account_Reference.png to Screenshot_Invalid_Email_Create_Account.png--><g id="link_Screenshot_Invalid_Email_Create_Account_Reference.png_Screenshot_Invalid_Email_Create_Account.png"><path d="M1149.45,1186.65 C1183.56,1243.88 1267.82,1371.38 1375,1434.68 C1385.2,1440.71 1396.17,1445.87 1407.51,1450.3 " fill="none" id="Screenshot_Invalid_Email_Create_Account_Reference.png-Screenshot_Invalid_Email_Create_Account.png" style="stroke:#000000;stroke-width:1.0;"/><polygon fill="#000000" points="1146.89,1182.32,1148.0522,1192.1,1149.4457,1186.6175,1154.9282,1188.011,1146.89,1182.32" style="stroke:#000000;stroke-width:1.0;"/><polygon fill="#000000" points="1412.39,1452.15,1405.4115,1445.2001,1407.7196,1450.3647,1402.555,1452.6727,1412.39,1452.15" style="stroke:#000000;stroke-width:1.0;"/></g><!--SRC=[dPPHZzeu4CVVyobysuTx8jlbtawdan2xNQ7ZkYj2Um-eGXDd22wE9x8TA3hjTpyxWK1QCEazy11cvZV_cNZ6-NLjRMb-lxyl9IXR5JBcLDoxNqaAbHra0d8DHHJzak5AA6J9wsmoVqe-pQRi6AfX5-V2hgkqCgWvAUiYQywcghvIYnwOKWkBvdxx40_V3n_YX_Vnmx0bJyOl7_jXRLL2fdyxWOMp3bREuvHY60zFecTFu_deu_FqQJcUZfA4SGd6H974bMMMc1Rvsh9CQEHMa8eYin6g15TtupdIcdPZagJP8-XD8i7YiuPz5Fa8KBb4TZUZbEpWWml27UdD7VitOgm4le7SMz5GfJcQvl-JvP5uLRZ2m6S-s1XRV0QNJR0QobeeUzNqrQMCC-BVljI-RntQNxXtVfavWPvHeNPwHohxPF1lufj7i13hWvvBa2bniAJF85DGcL3vgxCUZTyHdDE8SwgK3Jib8bSJ5VOPQ_I2R-AwgkzUNmRU-INr7Mhxt5KVL1rIsqDbKDqCLwXHSPmKxl6ijGdNYCgioIudQWjIPCkd0eHSDlpb8S6o1SIboYzb-0nQG2hFsNCqTWm6JMkxeF4jYivbcahQ8s8XAO_Njf2Dzu8gMrOs_jR-eR4aRSzTUfPpBAAJ_CxhRL_SOGJ-mJHPKrcROkt7eOrRZAaeI7LgwaQTcPnDaKKtxYMZLPW-Nml3Li9DjTyw89HX82MpQnVkF1dtFNL-gB8Q-WFyWh00azVUR7EStPNRCruHIz1jEkPER_CuHz0PxLGeyxNoRnTbB9PDxcwTxX4ismddco8pFhDRcTx77tfs6BTBcfgrwbLrHxDHWmPhEUQefvNJQKIVHFKUztcEY-9M1ddSS3-TePsa6otD9QKWsROToXyR-rsUwoUI_J5Ol4jbXLy6V_Ouz9rG5vdxYQn3hn-EQoOVhp6hew-jqL1iMUbIDhfxN4GX4cbtppQaQpitA4IeJHryPQM7ObDt-pSD3E_yuBxr88iWWwtimTYZbBGBzg47nNtJxKFjw8CWcVLfIe_RtECKRFTzSA4F2CyfG1EfuAk-gOMasDuuQi4l8i_WUr3XiVb_D_zX6RWhiwdnP-xRj_y0]--></g></svg>